<?xml version="1.0" encoding="UTF-8"?>
<svg id="Layer_1" xmlns="http://www.w3.org/2000/svg" width="810" height="1440" version="1.1" xmlns:xlink="http://www.w3.org/1999/xlink" viewBox="0 0 810 1440">
  <!-- Generator: Adobe Illustrator 29.8.2, SVG Export Plug-In . SVG Version: 2.1.1 Build 3)  -->
  <defs>
    <clipPath id="clippath">
      <rect y="-7.92" width="810" height="1440" fill="none"/>
    </clipPath>
    <clipPath id="clippath-1">
      <rect y="-7.92" width="810" height="1440" fill="none"/>
    </clipPath>
    <clipPath id="clippath-2">
      <rect x="81" y="638.34" width="648" height="132.75" fill="none"/>
    </clipPath>
    <clipPath id="clippath-3">
      <rect x="81" y="170.07" width="648" height="1152" fill="none"/>
    </clipPath>
  </defs>
  <g clip-path="url(#clippath)">
    <rect y="-7.92" width="810" height="1440" fill="#fff"/>
  </g>
  <g clip-path="url(#clippath-1)">
    <rect y="-7.92" width="810" height="1440" fill="#fff"/>
  </g>
  <g clip-path="url(#clippath-2)">
    <g clip-path="url(#clippath-3)">
      <g>
        <path d="M729,170.07v1152H81V170.07h648ZM659.19,665.46c-7.63,1.18-16.21,9.27-18.81,16.39-8.49,23.24,15.29,44.68,37.37,33.37,26.16-13.41,14.4-54.86-18.56-49.76ZM213.02,694.04c2.39.13,4.95,2.79,6.97,3.1,4.51.69,14.64-12.92,15.25-17.28,1.15-8.23-8.77-11.81-15.41-12.21-12.77-.77-30.23,5.12-38.44,15.22-8.01,9.85-6.01,16.41,2.03,25.19,8.44,9.21,37.96,23.49,19.57,37.22-12.64,9.44-40,4.44-52.68-3.92l-6.1,6.72c-.02,1.93,20.86,5.56,23.68,5.9,13.96,1.7,41.8,1.57,48.74-13.46,11.35-24.56-32.18-34.32-31.59-49.97.35-9.49,18.05-17.55,26.16-18.66,11.19-1.53,23.25,1.48,11.4,13-1.87,1.82-11.04,6.98-9.59,9.15ZM467.4,722.87c2.43-7.24,5.26-14.45,7.41-21.78,2.45-8.35,8.67-23.65,2.22-30.64-9.56-10.36-22.62,9.87-27.08,16.98-4.72,7.53-7.8,15.94-12.56,23.44.21-5.97,3.19-11.63,4.2-17.4,1.62-9.25,3.47-26.28-10.59-25-8.31.76-15.4,12.71-18.94,19.47-1.53,2.91-4.9,7.57-3.11,10.58.92,1.56,5.12,5.93,6.65,3.34,3.92-6.66,6.55-15.24,10.58-22.2.86-1.49,4.8-8.91,6.81-7.19,1.04,5.02-.15,10.31-1.04,15.35-4,22.53-12.58,44.25-18.15,66.25,2.9-.35,9.32,1.05,11.25-1.36,9.64-20.34,18.02-42.73,30.02-61.77,2.04-3.23,10.46-16.47,13.66-16.77l1.77,1.23c-2.08,22.55-15.57,44.61-19.65,66.51-2.97,15.95,6.51,15.31,13.5,3.9,10.84-17.71,16.35-41.15,27.22-59.18,2.08-3.44,14.5-21.65,13.35-8.26-.3,3.45-1.81,8.97-2.7,12.51-5.16,20.68-13.38,41.38-18.79,62.08-1.33,3.16,7.14,7.18,9.08,6.77,7.73-26.05,16.4-52.11,21.3-78.86-.98-7.97-1.84-15.55-12.03-12.83-14.15,3.78-26.22,40.48-32.41,53.22-.56,1.15.17,2.01-1.96,1.6ZM575.19,668.69c-2.25-2.07-5.4-.12-7.39,1.39-15.29,11.56-19.88,47.72-28,64-1.65,3.32-5.29,4.44-5.21,7.98l3,1.17c-2.01,5.98-.37,12.32,6.91,11.6,3.18-.31,13.57-5.48,12.45-9.11l-1.93-1.24c-2.91,3-10.7,8.76-9.71.78,2.33-18.67,17.38-28.15,25.17-44.51,2.93-6.15,10.23-26.99,4.71-32.07ZM522.39,703.01c-5.42,1.11-6.21,9.08-1.19,11.25,10.41,4.5,11.89-13.45,1.19-11.25ZM255.4,721.27c-10.42-1.47-20.25,3.32-26.4,11.61-10.9,14.7.46,29.99,16.76,16.76,1.58-1.29,1.89-3.75,4.04-3.55-.68,14.52,15.56,7.96,20.8.38-1.98-5.55-7.27,3.41-11.19,2.81-1.49-1.56,7.51-23.43,7.99-27.19-4.46.59-9.41-1.89-11.99,2.4v-3.21ZM341.02,723.67c-.19-3.79-7.59-2.54-10.46-2.04-6.31,1.1-14.24,7.5-17.41,12.99-7.92,13.69,1.41,26.65,15.81,16.61,1.08-.75,5.53-6.18,6.45-5.15-1.3,14.75,16.75,7.87,20.75-.3l-1.93-1.92-8.13,5.32-1.88-1.13,8.8-25.97c-4.02.39-8.68-1.27-11.98,1.59ZM525.8,721.28c-3.17.31-9.27-1.24-11.02,2.17-1.2,2.34-5.36,18.52-5.69,21.5-.66,5.88-.5,10.19,6.69,9.95,3.55-.12,14.96-6.5,14.03-10.02l-2-1.24c-3.38,1.53-4.75,5.63-9.19,4.82l7.19-27.19ZM590.61,725.27l.03-3.63c-10.66-2.53-22.79,4.63-27.68,13.98-7.15,13.68,2.38,24.94,15.91,15.91,1.3-.86,5.99-6.39,6.93-5.46-1.76,14.56,16.66,7.97,20.75-.3l-1.94-1.92-8.13,5.32-1.88-1.13,8-25.97c-5.04-.1-8.46-.93-12,3.19ZM642.6,749.27c-.14-7.55,9.29-19.79,2.43-26.03-5.55-5.04-13.41-.67-17.23,4.42l-.4-5.58c-2.48.46-9.31.63-10.78,2.41-.84,1.03-6.78,22.79-7.26,25.54-.28,1.62-.53,3.2-.36,4.85,11.57,1.59,9.15-2.32,13.17-9.64,1.98-3.61,8.29-14.3,11.07-16.52,1.05-.84,3.72-2.19,3.79.16.2,6.4-6.33,15.33-4.47,21.23,3.38,10.69,21.59-.88,20.44-5.21-.25-.93-1.75-1.45-2.73-1.26-.48.09-5.01,6.42-7.66,5.63ZM299.4,737.27c5.62-.23,8.96.45,9.59-6,1.65-16.96-14.36-7.17-18.8,1.2l1.2-9.59c-2.37-.05-7.45.01-9.27,1.53-1.18.99-8.9,28.46-8,29.7,9.87,4.54,11.42-7.08,15.33-13.58,2.65-4.41,5.67-8.65,9.55-12.06l1.94,1.24-1.55,7.55ZM306.6,778.07h-4.01v4.01h4.01v-4.01ZM480.2,778.07h-4.01c0,2.24-.77,3.7,1.63,4.41l-1.62,3.59c4.58.44,4.09-4.95,4-8ZM519.4,778.07v22.4h4.8v-11.6c0-1.84,6.4-2.7,6.4,0v11.6h4v-13.2c0-3.43-7.84-4.76-10.39-2.8l-.36-5.65-4.45-.75ZM224.2,783.67v22.4h4s0-6.4,0-6.4c14.76,7.9,20.13-17.77,3.55-16.05-1.5.16-2.71,1.35-3.16,1.35-.68,0-2.7-2.11-4.4-1.3ZM244.2,783.67v16.8h4c.28-3.4-.86-9.11,1.25-11.94,1-1.34,4.26-1.83,2.33-4.87h-7.59ZM270.6,794.07c2.67-13.85-18.23-13.82-17.65-1.21.41,8.87,13.9,11.67,17.65,3.2-4.29-1.69-10.63,4.87-12.79-1.99h12.8ZM273.8,783.67v16.8h4v-11.6c0-2.7,6.4-1.84,6.4,0v11.6h4c.21-3.22-1.5-13.59,3.6-13.62,4.17-.03,2.6,10.57,3.61,13.61h4c-.37-8.01,2.4-18.26-9.16-16.75-4.85.63-7.01.22-12.18.46-1.4.07-2.81-.72-4.26-.5ZM306.6,783.67h-4v16.8h4v-16.8ZM313.8,783.67h-4v13.2c0,.31,1.53,2.42,1.98,2.82,4.33,3.73,8.27-.75,13.22.78v-16.8h-4c-.48,3.62,2.11,14.62-4.35,13.62-.87-.13-2.84-1.47-2.84-2.02v-11.6ZM353.8,800.47v-12.4c0-1.1-2.95-4.09-4.42-4.37-3.98-.78-6.74,1.52-7.85,1.43-.89-.08-2.03-1.29-3.38-1.43-3.27-.35-6.66.71-9.95-.02v16.8h4c.32-3.2-1.83-15.02,4.23-13.48.6.2,2.17,1.61,2.17,1.88v11.6h4.8v-11.6c0-.27,1.57-1.67,2.17-1.88,6.06-1.55,3.91,10.27,4.23,13.48h4ZM368.92,783.75l-4.71.31,5.67,16.33,3.01-.04,2.52-9.48c3.15,1.02,2.11,11.92,6.43,9.23,1.62-1.01,4.74-13.93,6.36-16.43l-4.72.07-2.88,9.53c-1.42-.03-1.15-13.54-6.42-8.82l-2.77,8.81-2.49-9.52ZM403.93,798.6c9.33-9.33-7.23-21.8-14.14-11.34-6.32,9.58,6.83,18.65,14.14,11.34ZM434.6,800.47v-12.4c0-1.09-2.95-4.09-4.42-4.37-4.37-.86-6.39,1.56-7.98,1.57-.94,0-2.2-1.44-3.98-1.66-2.63-.34-6.29.9-9.22.07v16.8h4c.32-3.2-1.83-15.02,4.23-13.48.6.2,2.17,1.61,2.17,1.88v11.6h4c-.01-3.19-.73-13.23,3.58-13.56,5.46-.41,3.18,10.09,3.61,13.56h4ZM454.6,794.07c2.4-13.98-18.23-13.72-17.65-1.21.33,7.01,9.27,10.85,14.74,6.7,1.64-1.25,3.88-4.3.1-3.91-3.43.36-8.71,4.51-9.99-1.58h12.8ZM472.2,800.47v-13.2c0-.69-2.38-3.79-3.61-3.58-1.64.36-11.59-.41-11.59,1.18v15.6h4.8v-11.6c0-1.84,6.4-2.7,6.4,0v11.6h4ZM494.6,788.47c.17-6.54-10.75-6.76-11.19-.34-.4,5.89,8.55,5.24,7.99,7.93-.66,3.13-6.46-1.84-7.99-.38.36,8.87,14.22,6.48,11.59-2.39-.49-2.43-8.32-3.29-7.59-5.2,1.03-2.72,5.15,1.69,7.19.38ZM517,788.47c-.21-6.68-10.89-6.61-11.28-.4-.36,5.75,6.69,4.49,7.29,8,.28,1.63-.87,1.43-2.06,1.25-1.09-.16-2.69-3.06-5.94-1.64.61,7.35,11.4,7.2,12.06.41s-7.88-4.93-7.26-8.01c.58-2.84,5.57,1.85,7.19.38ZM552.75,785.52c-7.23-6.4-19.86,2.01-14.17,11.37,7.31,12.03,23.93-2.74,14.17-11.37ZM561.8,794.07h12.4c2.53-2.41-.95-8.64-3.81-9.79-5.13-2.07-10.92-.23-12.78,5.21-3.57,10.44,12.09,16.7,16.98,6.58-4.29-1.69-10.63,4.87-12.79-1.99ZM588.2,788.47c.17-6.54-10.76-6.76-11.19-.34-.26,3.91,3.83,5.54,7.09,6.04,1.32,7.32-4.91-.63-7.9,1.51.95,7.7,11.86,6.92,12.65.2.67-5.67-8.38-5.09-7.85-7.8s5.64,1.88,7.19.38Z" fill="#fff"/>
        <path d="M467.4,722.87c2.13.41,1.4-.44,1.96-1.6,6.2-12.74,18.26-49.44,32.41-53.22,10.18-2.72,11.05,4.86,12.03,12.83-4.9,26.75-13.56,52.81-21.3,78.86-1.94.41-10.41-3.6-9.08-6.77,5.41-20.71,13.62-41.41,18.79-62.08.89-3.55,2.4-9.07,2.7-12.51,1.15-13.4-11.28,4.82-13.35,8.26-10.87,18.03-16.38,41.47-27.22,59.18-6.99,11.41-16.47,12.06-13.5-3.9,4.08-21.91,17.57-43.96,19.65-66.51l-1.77-1.23c-3.19.3-11.62,13.54-13.66,16.77-12,19.04-20.39,41.43-30.02,61.77-1.93,2.41-8.34,1.01-11.25,1.36,5.57-22,14.15-43.72,18.15-66.25.89-5.04,2.08-10.33,1.04-15.35-2.01-1.72-5.94,5.7-6.81,7.19-4.03,6.96-6.66,15.54-10.58,22.2-1.53,2.59-5.73-1.79-6.65-3.34-1.78-3.01,1.58-7.66,3.11-10.58,3.54-6.75,10.63-18.71,18.94-19.47,14.06-1.28,12.21,15.74,10.59,25-1.01,5.78-3.99,11.44-4.2,17.4,4.76-7.51,7.83-15.91,12.56-23.44,4.46-7.11,17.52-27.35,27.08-16.98,6.45,6.99.23,22.29-2.22,30.64-2.15,7.33-4.98,14.54-7.41,21.78Z"/>
        <path d="M213.02,694.04c-1.45-2.18,7.71-7.33,9.59-9.15,11.84-11.52-.21-14.53-11.4-13-8.11,1.11-25.81,9.17-26.16,18.66-.58,15.65,42.94,25.4,31.59,49.97-6.94,15.03-34.78,15.16-48.74,13.46-2.83-.34-23.7-3.97-23.68-5.9l6.1-6.72c12.69,8.35,40.04,13.36,52.68,3.92,18.38-13.73-11.13-28.01-19.57-37.22s-10.04-15.34-2.03-25.19c8.22-10.1,25.68-15.98,38.44-15.22,6.64.4,16.56,3.99,15.41,12.21-.61,4.36-10.75,17.97-15.25,17.28-2.01-.31-4.58-2.97-6.97-3.1Z"/>
        <path d="M575.19,668.69c5.52,5.08-1.78,25.92-4.71,32.07-7.79,16.36-22.84,25.84-25.17,44.51-.99,7.98,6.8,2.22,9.71-.78l1.93,1.24c1.12,3.63-9.28,8.79-12.45,9.11-7.28.72-8.92-5.63-6.91-11.6l-3-1.17c-.08-3.54,3.55-4.67,5.21-7.98,8.12-16.28,12.71-52.44,28-64,1.99-1.5,5.14-3.45,7.39-1.39ZM554.61,718.07c10.19-12.1,19.05-28.59,18.38-44.8-4.47,4.32-6.74,11.79-9.17,17.63-3.59,8.63-7.34,18.03-9.22,27.17Z"/>
        <path d="M590.61,725.27c3.53-4.13,6.95-3.29,12-3.19l-8,25.97,1.88,1.13,8.13-5.32,1.94,1.92c-4.09,8.27-22.51,14.86-20.75.3-.94-.93-5.64,4.6-6.93,5.46-13.53,9.03-23.06-2.23-15.91-15.91,4.89-9.36,17.02-16.51,27.68-13.98l-.03,3.63ZM590.6,726.88c-2.44.1-4.23-1.96-6.74-1.62-6.24.85-14.75,15.92-12.35,22.29,3.75,2.18,7.5-1.17,9.89-3.87,3.96-4.47,6.26-11.59,9.2-16.8Z"/>
        <path d="M341.02,723.67c3.3-2.86,7.96-1.21,11.98-1.59l-8.8,25.97,1.88,1.13,8.13-5.32,1.93,1.92c-4,8.16-22.05,15.04-20.75.3-.91-1.04-5.37,4.39-6.45,5.15-14.39,10.05-23.72-2.92-15.81-16.61,3.17-5.49,11.11-11.89,17.41-12.99,2.87-.5,10.27-1.75,10.46,2.04ZM339.29,726.97c-8.11-6-16.99,7.04-18.1,14.09-1.68,10.68,5.37,8.08,10.18,2.19,1.9-2.33,6.55-10.48,7.57-13.23.38-1.01.8-1.97.34-3.06Z"/>
        <path d="M255.4,721.27v3.21c2.58-4.28,7.53-1.81,11.99-2.4-.48,3.76-9.48,25.63-7.99,27.19,3.92.61,9.21-8.36,11.19-2.81-5.24,7.57-21.48,14.14-20.8-.38-2.15-.2-2.46,2.27-4.04,3.55-16.29,13.23-27.66-2.06-16.76-16.76,6.15-8.29,15.98-13.08,26.4-11.61ZM254.6,726.89c-5.91-3-9.07-1.55-13.2,3.18-2.93,3.35-10.72,18.9-2.46,18.42,6.02-.35,13.99-16.16,15.67-21.59Z"/>
        <path d="M642.6,749.27c2.65.78,7.18-5.54,7.66-5.63.98-.19,2.49.33,2.73,1.26,1.15,4.34-17.06,15.91-20.44,5.21-1.86-5.9,4.67-14.82,4.47-21.23-.07-2.35-2.74-1-3.79-.16-2.78,2.22-9.09,12.91-11.07,16.52-4.02,7.32-1.59,11.22-13.17,9.64-.17-1.65.08-3.22.36-4.85.48-2.75,6.42-24.51,7.26-25.54,1.46-1.79,8.3-1.95,10.78-2.41l.4,5.58c3.82-5.08,11.69-9.46,17.23-4.42,6.86,6.24-2.57,18.48-2.43,26.03Z"/>
        <path d="M299.4,737.27l1.55-7.55-1.94-1.24c-3.88,3.41-6.9,7.65-9.55,12.06-3.91,6.49-5.46,18.12-15.33,13.58-.9-1.24,6.82-28.72,8-29.7,1.82-1.52,6.9-1.58,9.27-1.53l-1.2,9.59c4.43-8.37,20.45-18.16,18.8-1.2-.63,6.45-3.97,5.76-9.59,6Z"/>
        <path d="M525.8,721.28l-7.19,27.19c4.44.81,5.81-3.29,9.19-4.82l2,1.24c.94,3.53-10.48,9.9-14.03,10.02-7.18.24-7.35-4.07-6.69-9.95.33-2.99,4.49-19.17,5.69-21.5,1.75-3.42,7.85-1.87,11.02-2.17Z"/>
        <path d="M353.8,800.47h-4c-.32-3.2,1.83-15.02-4.23-13.48-.6.2-2.17,1.61-2.17,1.88v11.6h-4.8v-11.6c0-.27-1.57-1.67-2.17-1.88-6.06-1.55-3.91,10.27-4.23,13.48h-4v-16.8c3.29.73,6.68-.33,9.95.02,1.35.15,2.5,1.35,3.38,1.43,1.11.09,3.87-2.21,7.85-1.43,1.47.29,4.42,3.28,4.42,4.37v12.4Z"/>
        <path d="M273.8,783.67c1.45-.21,2.86.57,4.26.5,5.17-.25,7.33.17,12.18-.46,11.57-1.5,8.79,8.75,9.16,16.76h-4c-1.01-3.06.56-13.65-3.61-13.63-5.09.03-3.39,10.4-3.6,13.63h-4v-11.6c0-1.84-6.4-2.7-6.4,0v11.6h-4v-16.8Z"/>
        <path d="M434.6,800.47h-4c-.43-3.46,1.85-13.97-3.61-13.56-4.31.33-3.59,10.36-3.58,13.56h-4v-11.6c0-.27-1.57-1.67-2.17-1.88-6.06-1.55-3.91,10.27-4.23,13.48h-4v-16.8c2.93.83,6.59-.41,9.22-.07,1.78.23,3.04,1.67,3.98,1.66,1.59,0,3.61-2.43,7.98-1.57,1.47.29,4.42,3.28,4.42,4.37v12.4Z"/>
        <path d="M659.19,665.46c32.96-5.1,44.72,36.35,18.56,49.76-22.08,11.31-45.86-10.13-37.37-33.37,2.6-7.12,11.18-15.21,18.81-16.39ZM663.24,666.27c-33.23,2.57-29.62,55.16,6.89,50.13,29.25-4.03,25.93-52.67-6.89-50.13Z"/>
        <path d="M224.2,783.67c1.7-.81,3.72,1.31,4.4,1.3.45,0,1.66-1.2,3.16-1.35,16.58-1.72,11.2,23.95-3.55,16.05v6.4s-4.01,0-4.01,0v-22.4ZM231.99,787c-5.2.93-5.06,8.85-.82,10.11,8.4,2.5,8.85-11.55.82-10.11Z"/>
        <path d="M368.92,783.75l2.49,9.52,2.77-8.81c5.26-4.71,4.99,8.79,6.42,8.82l2.88-9.53,4.72-.07c-1.62,2.5-4.74,15.42-6.36,16.43-4.32,2.68-3.27-8.22-6.43-9.23l-2.52,9.48-3.01.04-5.67-16.33,4.71-.31Z"/>
        <path d="M270.6,794.07h-12.8c2.17,6.86,8.51.31,12.79,1.99-3.74,8.47-17.24,5.67-17.65-3.2-.58-12.61,20.32-12.64,17.65,1.21ZM265.57,787.91c-2.11-1.57-7.34-1.2-7.77,2.16h8.8c.1-.07-.83-2.01-1.03-2.16Z"/>
        <path d="M561.8,794.07c2.17,6.86,8.51.31,12.79,1.99-4.89,10.12-20.56,3.86-16.98-6.58,1.86-5.44,7.65-7.28,12.78-5.21,2.86,1.16,6.34,7.38,3.81,9.79h-12.4ZM570.6,790.07c-.97-4.64-6.52-3.64-8.79-.39l8.79.39Z"/>
        <path d="M454.6,794.07h-12.8c1.28,6.09,6.56,1.94,9.99,1.58,3.78-.39,1.54,2.66-.1,3.91-5.47,4.15-14.41.31-14.74-6.7-.58-12.51,20.05-12.77,17.65,1.21ZM450.6,790.06c-1.96-3.56-6.01-4.3-8.79-1.18-.33,1.81.79,1.1,1.98,1.19,2.25.16,4.56-.11,6.81,0Z"/>
        <path d="M519.4,778.07l4.45.75.36,5.65c2.55-1.96,10.39-.63,10.39,2.8v13.2h-4v-11.6c0-2.7-6.4-1.84-6.4,0v11.6h-4.8v-22.4Z"/>
        <path d="M552.75,785.52c9.76,8.63-6.86,23.4-14.17,11.37-5.69-9.36,6.94-17.77,14.17-11.37ZM545.58,787c-5.79.89-5.1,10.87,1.34,10.27,7.21-.67,4.71-11.2-1.34-10.27Z"/>
        <path d="M403.93,798.6c-7.31,7.31-20.46-1.75-14.14-11.34,6.91-10.47,23.46,2.01,14.14,11.34ZM400.79,796.26c4.04-3.84-.72-12.13-6.17-8.17-6.33,4.61,1.61,12.5,6.17,8.17Z"/>
        <path d="M472.2,800.47h-4v-11.6c0-2.7-6.4-1.84-6.4,0v11.6h-4.8v-15.6c0-1.59,9.94-.82,11.59-1.18,1.24-.21,3.61,2.9,3.61,3.58v13.2Z"/>
        <path d="M313.8,783.67v11.6c0,.55,1.98,1.89,2.84,2.02,6.46,1,3.87-10,4.35-13.62h4v16.8c-4.95-1.53-8.89,2.95-13.22-.78-.46-.39-1.98-2.51-1.98-2.82v-13.2h4Z"/>
        <path d="M494.6,788.47c-2.04,1.31-6.15-3.1-7.19-.38-.73,1.92,7.09,2.78,7.59,5.2,2.63,8.87-11.23,11.26-11.59,2.39,1.53-1.46,7.33,3.52,7.99.38.56-2.69-8.39-2.04-7.99-7.93.44-6.42,11.35-6.2,11.19.34Z"/>
        <path d="M588.2,788.47c-1.55,1.49-6.63-3.22-7.19-.38s8.52,2.13,7.85,7.8c-.8,6.72-11.7,7.5-12.65-.2,2.99-2.14,9.22,5.81,7.9-1.51-3.25-.5-7.35-2.13-7.09-6.04.43-6.42,11.36-6.2,11.19.34Z"/>
        <path d="M517,788.47c-1.62,1.47-6.62-3.22-7.19-.38-.62,3.07,7.93,1.06,7.26,8.01s-11.45,6.94-12.06-.41c3.26-1.42,4.86,1.48,5.94,1.64,1.19.18,2.34.38,2.06-1.25-.6-3.5-7.64-2.24-7.29-8,.38-6.21,11.07-6.28,11.28.4Z"/>
        <path d="M522.39,703.01c10.7-2.2,9.22,15.76-1.19,11.25-5.02-2.17-4.23-10.14,1.19-11.25Z"/>
        <path d="M244.2,783.67h7.59c1.93,3.03-1.34,3.52-2.33,4.86-2.11,2.83-.97,8.54-1.25,11.95h-4v-16.8Z"/>
        <rect x="302.6" y="783.67" width="4" height="16.8"/>
        <path d="M480.2,778.07c.09,3.05.58,8.43-4,8l1.62-3.59c-2.4-.7-1.63-2.17-1.63-4.41h4.01Z"/>
        <rect x="302.6" y="778.07" width="4.01" height="4.01"/>
        <path d="M554.61,718.07c1.88-9.15,5.63-18.54,9.22-27.17,2.43-5.84,4.7-13.3,9.17-17.63.67,16.21-8.2,32.7-18.38,44.8Z" fill="#fff"/>
        <path d="M590.6,726.88c-2.94,5.21-5.24,12.33-9.2,16.8-2.4,2.7-6.14,6.05-9.89,3.87-2.4-6.37,6.11-21.44,12.35-22.29,2.51-.34,4.29,1.72,6.74,1.62Z" fill="#fff"/>
        <path d="M339.29,726.97c.46,1.08.04,2.05-.34,3.06-1.02,2.74-5.67,10.9-7.57,13.23-4.82,5.89-11.86,8.48-10.18-2.19,1.11-7.06,9.98-20.09,18.1-14.09Z" fill="#fff"/>
        <path d="M254.6,726.89c-1.67,5.44-9.65,21.24-15.67,21.59-8.25.48-.47-15.07,2.46-18.42,4.14-4.73,7.3-6.18,13.2-3.18Z" fill="#fff"/>
        <path d="M663.24,666.27c32.82-2.54,36.13,46.1,6.89,50.13-36.5,5.03-40.11-47.56-6.89-50.13ZM668.6,678.87c-3.23-.64-8.14.47-11.6,0v24.8h4.8c-.51-2.75-.3-13.83,3.89-8.29,3.19,4.22,3.31,9.95,10.51,8.29l-6.45-10.75c6.17-2.43,5.44-12.73-1.15-14.04Z" fill="#fff"/>
        <path d="M231.99,787c8.03-1.43,7.58,12.61-.82,10.11-4.24-1.26-4.38-9.18.82-10.11Z" fill="#fff"/>
        <path d="M265.57,787.91c.2.15,1.13,2.09,1.03,2.16h-8.8c.42-3.36,5.66-3.73,7.77-2.16Z" fill="#fff"/>
        <path d="M570.6,790.07l-8.79-.39c2.27-3.25,7.83-4.25,8.79.39Z" fill="#fff"/>
        <path d="M450.6,790.06c-2.25-.1-4.56.17-6.81,0-1.19-.09-2.32.62-1.98-1.19,2.78-3.12,6.83-2.38,8.79,1.18Z" fill="#fff"/>
        <path d="M545.58,787c6.05-.93,8.55,9.6,1.34,10.27-6.44.6-7.12-9.38-1.34-10.27Z" fill="#fff"/>
        <path d="M400.79,796.26c-4.56,4.33-12.5-3.56-6.17-8.17,5.45-3.96,10.21,4.32,6.17,8.17Z" fill="#fff"/>
        <path d="M668.6,678.87c6.59,1.31,7.32,11.61,1.15,14.04l6.45,10.75c-7.19,1.67-7.32-4.07-10.51-8.29-4.19-5.54-4.4,5.54-3.89,8.29h-4.8v-24.8c3.46.47,8.37-.64,11.6,0ZM661.8,690.08c5.92,1.74,10.3-5.63,3.42-7.07-4.75-1-3.28,3.82-3.42,7.07Z"/>
        <path d="M661.8,690.08c.15-3.25-1.33-8.07,3.42-7.07,6.88,1.44,2.5,8.81-3.42,7.07Z" fill="#fff"/>
      </g>
    </g>
  </g>
</svg>